<svg width="2360" height="694" viewBox="0 0 2360 694" fill="none" xmlns="http://www.w3.org/2000/svg">
<path d="M2042.46 333.035C2034.66 333.035 2027.8 331.174 2021.89 327.452C2015.98 323.729 2011.37 318.362 2008.08 311.372C2004.79 304.361 2003.14 296.18 2003.14 286.788C2003.14 277.396 2004.74 269.086 2007.99 262.204C2011.22 255.322 2015.78 250.02 2021.72 246.298C2027.63 242.576 2034.55 240.715 2042.48 240.715C2050.4 240.715 2057.22 242.706 2062.96 246.644C2068.7 250.605 2072.53 255.885 2074.48 262.464H2072.66V242.359H2089.11V331.39H2072.66V310.745H2074.48C2072.66 317.562 2068.85 322.994 2063.05 327.019C2057.24 331.044 2050.4 333.057 2042.48 333.057L2042.46 333.035ZM2046.29 319.877C2054.34 319.877 2060.73 317.042 2065.49 311.372C2070.26 305.702 2072.62 297.501 2072.62 286.788C2072.62 276.076 2070.23 267.896 2065.49 262.291C2060.73 256.686 2054.34 253.872 2046.29 253.872C2038.24 253.872 2032 256.686 2027.17 262.291C2022.37 267.896 2019.94 276.054 2019.94 286.788C2019.94 297.522 2022.34 305.702 2027.17 311.372C2032 317.042 2038.36 319.877 2046.29 319.877Z" fill="white"/>
<path d="M2128.91 242.381H2112.26V331.412H2128.91V242.381Z" fill="white"/>
<path d="M1965.23 180V249.032H1980.58V195.34H2034.27V180H1965.23Z" fill="white"/>
<path d="M2180 394.765L2180 325.733L2164.66 325.733L2164.66 379.425L2110.97 379.425L2110.97 394.765L2180 394.765Z" fill="white"/>
<path d="M2180 180L2110.97 180L2110.97 195.34L2164.66 195.34L2164.66 249.032L2180 249.032L2180 180Z" fill="white"/>
<path d="M1965.23 394.765L2034.27 394.765L2034.27 379.425L1980.58 379.425L1980.58 325.733L1965.23 325.733L1965.23 394.765Z" fill="white"/>
<!-- M -->
<path d="M417.479 380.085C422.172 370.337 429.384 363.107 439.029 358.416C448.717 353.725 460.815 351.358 475.347 351.358C489.879 351.358 502.021 353.703 511.708 358.416C521.353 363.107 528.587 370.337 533.387 380.085C537.585 388.672 539.975 399.452 540.47 412.45H571.945C571.234 395.407 567.273 380.451 560.039 367.518C552.031 353.251 540.836 342.212 526.455 334.379C512.096 326.547 495.045 322.63 475.304 322.63C455.563 322.63 439.093 326.547 424.626 334.379C410.159 342.212 398.922 353.251 390.891 367.518C383.658 380.43 379.675 395.385 378.965 412.45H410.482C410.977 399.452 413.302 388.672 417.436 380.085H417.479ZM533.409 455.617C528.608 465.472 521.375 472.746 511.73 477.437C502.042 482.128 489.943 484.495 475.369 484.495C460.794 484.495 448.738 482.149 439.05 477.437C429.406 472.746 422.215 465.472 417.5 455.617C413.69 447.612 411.408 437.778 410.741 426.179H379.18C380.17 442.081 384.132 456.112 390.978 468.334C398.986 482.601 410.245 493.641 424.712 501.473C439.179 509.306 456.058 513.223 475.39 513.223C494.723 513.223 512.182 509.306 526.541 501.473C540.922 493.641 552.117 482.601 560.126 468.334C566.972 456.133 570.89 442.103 571.88 426.179H540.363C539.652 437.778 537.327 447.612 533.452 455.617H533.409Z" fill="white"/>
<!-- O -->
<path d="M650 417.249C650 430.978 647.503 443.91 642.551 455.488C637.578 467.086 630.668 477.136 621.798 485.657C612.95 494.2 602.53 500.849 590.56 505.648C578.611 510.447 565.631 512.857 551.594 512.857C537.558 512.857 524.964 510.426 513.015 505.605C501.066 500.783 490.668 494.135 481.798 485.614C472.95 477.093 466.061 467.021 461.173 455.445C456.248 443.867 453.729 430.935 453.729 417.249C453.729 403.563 456.227 390.845 461.173 379.182C466.126 367.497 473.015 357.405 481.841 348.883C490.711 340.362 501.131 333.734 513.101 329C525.05 324.266 537.601 321.898 551.637 321.898C565.674 321.898 578.654 324.287 590.603 329.086C602.552 333.885 612.951 340.513 621.842 349.056C630.711 357.577 637.621 367.648 642.595 379.225C647.52 390.801 650 403.541 650 417.249ZM483.229 417.249C483.229 430.655 485.983 442.426 491.474 452.518C496.984 462.61 504.649 470.486 514.487 476.103C524.326 481.719 537.083 484.538 551.637 484.538C566.191 484.538 578.891 481.719 588.729 476.103C598.589 470.486 606.253 462.61 611.764 452.518C617.254 442.426 620.009 430.655 620.009 417.249C620.009 403.842 617.254 392.136 611.764 382.108C606.253 372.102 598.589 364.269 588.729 358.653C578.891 353.037 566.191 350.196 551.637 350.196C537.083 350.196 524.326 353.037 514.487 358.653C504.649 364.269 496.984 372.102 491.474 382.108C485.983 392.136 483.229 403.842 483.229 417.249Z" fill="white"/>
<!-- O -->
<path d="M842 417.249C842 430.978 839.503 443.91 834.551 455.488C829.578 467.086 822.668 477.136 813.798 485.657C804.95 494.2 794.53 500.849 782.56 505.648C770.611 510.447 757.631 512.857 743.594 512.857C729.558 512.857 716.964 510.426 705.015 505.605C693.066 500.783 682.668 494.135 673.798 485.614C664.95 477.093 658.061 467.021 653.173 455.445C648.248 443.867 645.729 430.935 645.729 417.249C645.729 403.563 648.227 390.845 653.173 379.182C658.126 367.497 665.015 357.405 673.841 348.883C682.711 340.362 693.131 333.734 705.101 329C717.05 324.266 729.601 321.898 743.637 321.898C757.674 321.898 770.654 324.287 782.603 329.086C794.552 333.885 804.951 340.513 813.842 349.056C822.711 357.577 829.621 367.648 834.595 379.225C839.52 390.801 842 403.541 842 417.249ZM675.229 417.249C675.229 430.655 677.983 442.426 683.474 452.518C688.984 462.61 696.649 470.486 706.487 476.103C716.326 481.719 729.083 484.538 743.637 484.538C758.191 484.538 770.891 481.719 780.729 476.103C790.589 470.486 798.253 462.61 803.764 452.518C809.254 442.426 812.009 430.655 812.009 417.249C812.009 403.842 809.254 392.136 803.764 382.108C798.253 372.102 790.589 364.269 780.729 358.653C770.891 353.037 758.191 350.196 743.637 350.196C729.083 350.196 716.326 353.037 706.487 358.653C696.649 364.269 688.984 372.102 683.474 382.108C677.983 392.136 675.229 403.842 675.229 417.249Z" fill="white"/>
<!-- D -->
<path d="M892.258 325.944V511.049H967.358C981.783 511.049 994.419 508.682 1005.27 503.969C1016.14 499.256 1024.76 492.349 1031.13 483.269C1037.48 474.189 1042.01 463.693 1044.72 451.765C1047.45 439.843 1048.82 427.027 1048.82 413.375C1048.82 399.722 1047.45 386.326 1044.72 373.458C1042.01 360.567 1037.35 349.551 1030.64 340.363C1023.94 331.175 1014.93 324.03 1003.57 318.897C992.223 313.776 978.294 311.199 961.784 311.199L892.173 311.177L892.258 325.944ZM922.096 338.078H960.837C976.982 338.078 989.726 340.707 999.106 345.963C1008.49 351.228 1015.48 359.318 1020.13 370.293C1024.76 381.29 1027.09 396.301 1027.09 415.355C1027.09 434.408 1024.61 449.635 1019.68 460.781C1014.72 471.927 1007.33 479.979 997.408 484.904C987.504 489.811 975.044 492.305 960.043 492.305H922.096V338.078Z" fill="white"/>
<!-- B -->
<path d="M1105.44 325.922V511.028H1180.07C1197.01 511.028 1211.03 508.877 1222.14 504.508C1233.25 500.157 1241.65 494.2 1247.36 486.737C1253.06 479.295 1256.01 470.62 1256.28 460.781C1256.28 451.743 1254.05 443.867 1249.59 437.177C1245.14 430.462 1239.26 425.125 1232.01 421.144C1224.77 417.163 1217.18 414.388 1209.28 412.84V408.49C1222.08 407.736 1233.21 403.972 1242.67 397.171C1252.13 390.371 1256.86 380.73 1256.86 368.224C1256.86 359.77 1254.48 352.308 1249.68 345.899C1244.9 339.447 1238.18 334.509 1229.58 330.979C1220.96 327.45 1210.91 325.686 1199.34 325.686L1105.44 325.686V325.922ZM1135.28 406.34V346.608H1190.09C1200.48 346.608 1208.34 348.416 1213.63 352.091C1218.93 355.749 1221.58 361.127 1221.58 368.181C1221.58 376.532 1218.38 382.515 1211.99 386.131C1205.59 389.746 1197.34 391.543 1187.25 391.543L1135.28 391.543V406.34ZM1135.28 486.996V425.492H1191.78C1202.66 425.492 1211.03 427.623 1216.88 431.906C1222.73 436.188 1225.66 441.867 1225.66 448.924C1225.66 456.757 1222.25 462.739 1215.42 466.787C1208.6 470.836 1199.34 472.875 1187.66 472.875L1135.28 472.875V486.996Z" fill="white"/>
<!-- O -->
<path d="M1349 417.249C1349 430.978 1346.5 443.91 1341.55 455.488C1336.58 467.086 1329.67 477.136 1320.8 485.657C1311.95 494.2 1301.53 500.849 1289.56 505.648C1277.61 510.447 1264.63 512.857 1250.59 512.857C1236.56 512.857 1223.96 510.426 1212.01 505.605C1200.07 500.783 1189.67 494.135 1180.8 485.614C1171.95 477.093 1165.06 467.021 1160.17 455.445C1155.25 443.867 1152.73 430.935 1152.73 417.249C1152.73 403.563 1155.23 390.845 1160.17 379.182C1165.13 367.497 1172.01 357.405 1180.84 348.883C1189.71 340.362 1200.13 333.734 1212.1 329C1224.05 324.266 1236.6 321.898 1250.64 321.898C1264.67 321.898 1277.65 324.287 1289.6 329.086C1301.55 333.885 1311.95 340.513 1320.84 349.056C1329.71 357.577 1336.62 367.648 1341.59 379.225C1346.52 390.801 1349 403.541 1349 417.249ZM1182.23 417.249C1182.23 430.655 1184.98 442.426 1190.47 452.518C1195.98 462.61 1203.65 470.486 1213.49 476.103C1223.33 481.719 1236.08 484.538 1250.64 484.538C1265.19 484.538 1277.89 481.719 1287.73 476.103C1297.59 470.486 1305.25 462.61 1310.76 452.518C1316.25 442.426 1319.01 430.655 1319.01 417.249C1319.01 403.842 1316.25 392.136 1310.76 382.108C1305.25 372.102 1297.59 364.269 1287.73 358.653C1277.89 353.037 1265.19 350.196 1250.64 350.196C1236.08 350.196 1223.33 353.037 1213.49 358.653C1203.65 364.269 1195.98 372.102 1190.47 382.108C1184.98 392.136 1182.23 403.842 1182.23 417.249Z" fill="white"/>
<!-- A -->
<path d="M1487.52 325.922V432.29C1487.52 444.814 1485.56 454.928 1481.71 462.653C1477.83 470.422 1471.7 476.081 1463.32 479.675C1456.41 482.623 1447.76 484.366 1437.32 484.882V513.653C1452.88 512.943 1466.27 509.844 1477.53 504.4C1490.47 498.138 1500.29 489.1 1507.13 477.2C1513.94 465.3 1517.36 450.99 1517.36 434.227V325.944H1487.52V325.922ZM1379.04 462.653C1375.08 454.928 1373.1 444.814 1373.1 432.29V325.922H1343.54V434.205C1343.54 450.968 1346.96 465.279 1353.77 477.178C1360.61 489.078 1370.43 498.116 1383.33 504.378C1394.61 509.866 1408.04 512.964 1423.61 513.631V484.861C1413.16 484.366 1404.51 482.644 1397.58 479.653C1389.2 476.059 1383 470.4 1379.06 462.632L1379.04 462.653Z" fill="white"/>
<!-- R -->
<path d="M1587.29 325.922V511.028H1617.13V436.723H1680.63C1683.88 436.723 1686.66 436.466 1688.96 435.911C1691.27 435.367 1693.79 434.162 1696.55 432.226C1699.28 430.29 1702.64 426.309 1706.61 420.261L1738.24 371.972C1739.85 369.046 1741.64 366.356 1743.58 363.881C1745.54 361.407 1747.79 359.297 1750.35 357.383C1752.92 355.49 1755.91 353.983 1759.35 352.863V346.608H1731.42L1688.66 410.664C1684.94 416.345 1681.35 420.325 1677.88 422.585C1674.42 424.866 1669.33 426.029 1662.62 426.029H1617.13V341.543H1620.62C1627.1 341.543 1632.26 339.447 1636.05 335.252C1639.85 331.035 1641.73 325.151 1641.73 317.563V325.922H1587.29ZM1587.29 336.165V341.564H1567.31C1562.72 341.564 1559.13 340.362 1556.51 337.972C1553.91 335.575 1552.6 332.303 1552.6 328.151C1552.6 324.781 1553.61 321.898 1555.63 319.465C1557.67 317.053 1560.25 315.824 1563.37 315.824C1569.7 315.824 1574.13 317.498 1576.65 320.845C1579.18 324.202 1580.44 329.292 1580.44 336.165H1587.29Z" fill="white"/>
<!-- D -->
<path d="M1803.86 511.049H1833.46V366.464H1803.86V511.028V511.049ZM1803.86 325.944V352.757H1833.46V325.944H1803.86ZM1730.92 325.944V352.757H1906.12V325.944H1730.92Z" fill="white"/>
<!-- [ai] -->
<path d="M311.517 359.384C320.645 365.517 327.254 373.458 331.323 383.227L361.118 370.058C357.738 361.45 352.205 353.51 344.498 346.236C336.769 338.941 327.34 333.067 316.167 328.591C304.993 324.115 292.399 321.898 278.406 321.898H277.459V350.217C277.76 350.196 278.083 350.196 278.406 350.196C291.344 350.196 302.389 353.273 311.517 359.384ZM311.517 475.349C302.389 481.482 291.344 484.538 278.406 484.538C278.083 484.538 277.76 484.538 277.459 484.516V512.857H278.406C292.399 512.857 304.993 510.619 316.167 506.143C327.34 501.689 336.769 495.814 344.498 488.519C352.205 481.246 357.738 473.37 361.118 464.934L331.323 451.765C327.254 461.362 320.645 469.238 311.517 475.349ZM207.922 348.84C199.074 357.362 192.185 367.454 187.32 379.139C182.454 390.802 180 403.519 180 417.249C180 430.978 182.497 443.91 187.449 455.488C192.422 467.086 199.332 477.136 208.202 485.657C217.05 494.2 227.47 500.849 239.44 505.648C247.104 508.725 255.177 510.813 263.659 511.91V483.161C256.748 481.805 250.355 479.46 244.499 476.103C234.66 470.486 226.996 462.61 221.485 452.518C215.995 442.426 213.24 430.655 213.24 417.249C213.24 403.842 215.995 392.136 221.485 382.108C226.996 372.102 234.66 364.269 244.499 358.653C250.355 355.296 256.748 352.929 263.659 351.573V322.802C255.048 323.878 246.888 325.922 239.181 328.957C227.212 333.691 216.792 340.319 207.922 348.84Z" fill="white"/>
</svg> 