<svg width="2360" height="694" viewBox="0 0 2360 694" fill="none" xmlns="http://www.w3.org/2000/svg">
<path d="M2042.46 333.035C2034.66 333.035 2027.8 331.174 2021.89 327.452C2015.98 323.729 2011.37 318.362 2008.08 311.372C2004.79 304.361 2003.14 296.18 2003.14 286.788C2003.14 277.396 2004.74 269.086 2007.99 262.204C2011.22 255.322 2015.78 250.02 2021.72 246.298C2027.63 242.576 2034.55 240.715 2042.48 240.715C2050.4 240.715 2057.22 242.706 2062.96 246.644C2068.7 250.605 2072.53 255.885 2074.48 262.464H2072.66V242.359H2089.11V331.39H2072.66V310.745H2074.48C2072.66 317.562 2068.85 322.994 2063.05 327.019C2057.24 331.044 2050.4 333.057 2042.48 333.057L2042.46 333.035ZM2046.29 319.877C2054.34 319.877 2060.73 317.042 2065.49 311.372C2070.26 305.702 2072.62 297.501 2072.62 286.788C2072.62 276.076 2070.23 267.896 2065.49 262.291C2060.73 256.686 2054.34 253.872 2046.29 253.872C2038.24 253.872 2032 256.686 2027.17 262.291C2022.37 267.896 2019.94 276.054 2019.94 286.788C2019.94 297.522 2022.34 305.702 2027.17 311.372C2032 317.042 2038.36 319.877 2046.29 319.877Z" fill="white"/>
<path d="M2128.91 242.381H2112.26V331.412H2128.91V242.381Z" fill="white"/>
<path d="M1965.23 180V249.032H1980.58V195.34H2034.27V180H1965.23Z" fill="white"/>
<path d="M2180 394.765L2180 325.733L2164.66 325.733L2164.66 379.425L2110.97 379.425L2110.97 394.765L2180 394.765Z" fill="white"/>
<path d="M2180 180L2110.97 180L2110.97 195.34L2164.66 195.34L2164.66 249.032L2180 249.032L2180 180Z" fill="white"/>
<path d="M1965.23 394.765L2034.27 394.765L2034.27 379.425L1980.58 379.425L1980.58 325.733L1965.23 325.733L1965.23 394.765Z" fill="white"/>
<path d="M417.479 380.085C422.172 370.337 429.384 363.107 439.029 358.416C448.717 353.725 460.815 351.358 475.347 351.358C489.879 351.358 502.021 353.703 511.708 358.416C521.353 363.107 528.587 370.337 533.387 380.085C537.585 388.672 539.975 399.452 540.47 412.45H571.945C571.234 395.407 567.273 380.451 560.039 367.518C552.031 353.251 540.836 342.212 526.455 334.379C512.096 326.547 495.045 322.63 475.304 322.63C455.563 322.63 439.093 326.547 424.626 334.379C410.159 342.212 398.922 353.251 390.891 367.518C383.658 380.43 379.675 395.385 378.965 412.45H410.482C410.977 399.452 413.302 388.672 417.436 380.085H417.479ZM533.409 455.617C528.608 465.472 521.375 472.746 511.73 477.437C502.042 482.128 489.943 484.495 475.369 484.495C460.794 484.495 448.738 482.149 439.05 477.437C429.406 472.746 422.215 465.472 417.5 455.617C413.69 447.612 411.408 437.778 410.741 426.179H379.18C380.17 442.081 384.132 456.112 390.978 468.334C398.986 482.601 410.245 493.641 424.712 501.473C439.179 509.306 456.058 513.223 475.39 513.223C494.723 513.223 512.182 509.306 526.541 501.473C540.922 493.641 552.117 482.601 560.126 468.334C566.972 456.133 570.89 442.103 571.88 426.179H540.363C539.652 437.778 537.327 447.612 533.452 455.617H533.409Z" fill="white"/>
<path d="M1487.52 325.922V432.29C1487.52 444.814 1485.56 454.928 1481.71 462.653C1477.83 470.422 1471.7 476.081 1463.32 479.675C1456.41 482.623 1447.76 484.366 1437.32 484.882V513.653C1452.88 512.943 1466.27 509.844 1477.53 504.4C1490.47 498.138 1500.29 489.1 1507.13 477.2C1513.94 465.3 1517.36 450.99 1517.36 434.227V325.944H1487.52V325.922ZM1379.04 462.653C1375.08 454.928 1373.1 444.814 1373.1 432.29V325.922H1343.54V434.205C1343.54 450.968 1346.96 465.279 1353.77 477.178C1360.61 489.078 1370.43 498.116 1383.33 504.378C1394.61 509.866 1408.04 512.964 1423.61 513.631V484.861C1413.16 484.366 1404.51 482.644 1397.58 479.653C1389.2 476.059 1383 470.4 1379.06 462.632L1379.04 462.653Z" fill="white"/>
<path d="M738.488 325.922V435.324L739.887 468.743H737.648L713.601 434.205L630.717 325.922H598.618V327.945L671.276 426.953L736.27 511.028H768.326V325.922H738.488ZM598.64 351.164V511.049H628.521V402.465L628.134 391.361L598.64 351.164Z" fill="white"/>
<path d="M846.646 482.106C838.917 479.61 833.363 475.952 830.048 471.067C826.732 466.182 825.096 460.071 825.096 452.69V448.279H795.258V449.914C795.258 462.847 798.401 474.015 804.666 483.484C810.909 492.952 820.274 500.29 832.696 505.454C842.814 509.65 854.848 512.104 868.777 512.857V485.592C859.757 485.14 852.394 483.957 846.668 482.106H846.646ZM918.766 364.979C922.081 370.036 923.761 376.341 923.761 383.916V387.509H953.319V385.831C953.319 373.694 950.499 362.87 944.923 353.359C939.304 343.891 930.671 336.381 919.067 330.85C909.229 326.159 897.065 323.448 882.555 322.759V350.239C890.499 350.734 897.151 351.874 902.469 353.617C910.025 356.113 915.472 359.879 918.787 364.936L918.766 364.979ZM950.283 435.281C946.215 428.481 940.101 422.865 931.898 418.432C923.674 413.978 913.405 410.664 901.048 408.469L856.032 400.744C848.842 399.108 842.922 397.3 838.336 395.342C833.751 393.427 830.328 390.823 828.11 387.509C825.893 384.174 824.795 379.956 824.795 374.792C824.795 369.068 826.366 364.441 829.488 360.848C832.631 357.254 837.647 354.543 844.558 352.692C850.823 351.013 858.874 350.088 868.734 349.959V322.695C856.7 323.017 846.323 324.545 837.647 327.149C827.594 330.183 819.456 334.272 813.17 339.436C806.905 344.601 802.298 350.411 799.348 356.845C796.399 363.279 794.935 369.842 794.935 376.47C794.935 386.606 797.174 395.019 801.695 401.755C806.216 408.49 812.524 413.827 820.64 417.765C828.735 421.746 837.949 424.737 848.239 426.738L893.578 434.205C905.182 436.422 913.556 439.37 918.723 443.028C923.89 446.729 926.452 452.604 926.452 460.717C926.452 466.419 924.966 471.153 921.888 474.919C918.852 478.728 913.836 481.461 906.861 483.204C900.618 484.775 892.501 485.614 882.491 485.808V513.158C898.981 512.835 912.544 510.318 923.136 505.605C934.568 500.505 942.942 493.856 948.281 485.571C953.62 477.286 956.29 468.442 956.29 459.06C956.29 449.677 954.266 442.124 950.24 435.324L950.283 435.281Z" fill="white"/>
<path d="M1294.24 457.704C1290.93 451.786 1287.29 446.772 1283.3 442.641C1279.34 438.509 1273.79 435.518 1266.6 433.667V431.752C1278.2 430.999 1288.11 428.503 1296.31 424.285C1304.51 420.046 1310.78 414.236 1315.1 406.876C1319.41 399.538 1321.58 390.673 1321.58 380.365C1321.58 368.766 1318.87 358.932 1313.42 350.82C1307.98 342.729 1300.18 336.553 1289.96 332.313C1279.73 328.074 1267.59 325.944 1253.6 325.944H1201.02V352.756H1253.32C1265.67 352.756 1274.97 355.253 1281.24 360.223C1287.5 365.216 1290.65 373.285 1290.65 384.54C1290.65 395.794 1287.5 404.337 1281.24 409.093C1274.97 413.891 1265.67 416.28 1253.32 416.28H1187.29V325.922H1157.45V511.028H1187.29V439.198H1221.26C1229.2 439.198 1235.53 439.865 1240.36 441.263C1245.14 442.662 1249.16 444.857 1252.37 447.913C1255.62 450.947 1258.61 454.928 1261.39 459.92L1290.95 511.049H1325.2L1294.24 457.725V457.704Z" fill="white"/>
<path d="M1803.86 511.049H1833.46V366.464H1803.86V511.028V511.049ZM1803.86 325.944V352.757H1833.46V325.944H1803.86ZM1730.92 325.944V352.757H1906.12V325.944H1730.92Z" fill="white"/>
<path d="M1038.03 511.049H1067.59V366.464H1038.03V511.028V511.049ZM1038.03 325.944V352.757H1067.59V325.944H1038.03ZM965.052 325.944V352.757H1140.27V325.944H965.052Z" fill="white"/>
<path d="M311.517 359.384C320.645 365.517 327.254 373.458 331.323 383.227L361.118 370.058C357.738 361.45 352.205 353.51 344.498 346.236C336.769 338.941 327.34 333.067 316.167 328.591C304.993 324.115 292.399 321.898 278.406 321.898H277.459V350.217C277.76 350.196 278.083 350.196 278.406 350.196C291.344 350.196 302.389 353.273 311.517 359.384ZM311.517 475.349C302.389 481.482 291.344 484.538 278.406 484.538C278.083 484.538 277.76 484.538 277.459 484.516V512.857H278.406C292.399 512.857 304.993 510.619 316.167 506.143C327.34 501.689 336.769 495.814 344.498 488.519C352.205 481.246 357.738 473.37 361.118 464.934L331.323 451.765C327.254 461.362 320.645 469.238 311.517 475.349ZM207.922 348.84C199.074 357.362 192.185 367.454 187.32 379.139C182.454 390.802 180 403.519 180 417.249C180 430.978 182.497 443.91 187.449 455.488C192.422 467.086 199.332 477.136 208.202 485.657C217.05 494.2 227.47 500.849 239.44 505.648C247.104 508.725 255.177 510.813 263.659 511.91V483.161C256.748 481.805 250.355 479.46 244.499 476.103C234.66 470.486 226.996 462.61 221.485 452.518C215.995 442.426 213.24 430.655 213.24 417.249C213.24 403.842 215.995 392.136 221.485 382.108C226.996 372.102 234.66 364.269 244.499 358.653C250.355 355.296 256.748 352.929 263.659 351.573V322.802C255.048 323.878 246.888 325.922 239.181 328.957C227.212 333.691 216.792 340.319 207.922 348.84Z" fill="white"/>
<path d="M1667.24 359.384C1676.37 365.517 1682.98 373.458 1687.05 383.227L1716.84 370.058C1713.46 361.45 1707.93 353.51 1700.22 346.236C1692.49 338.941 1683.06 333.067 1671.89 328.591C1660.72 324.115 1648.12 321.898 1634.13 321.898H1633.18V350.217C1633.48 350.196 1633.81 350.196 1634.13 350.196C1647.07 350.196 1658.11 353.273 1667.24 359.384ZM1667.24 475.349C1658.11 481.482 1647.07 484.538 1634.13 484.538C1633.81 484.538 1633.48 484.538 1633.18 484.516V512.857H1634.13C1648.12 512.857 1660.72 510.619 1671.89 506.143C1683.06 501.689 1692.49 495.814 1700.22 488.519C1707.93 481.246 1713.46 473.37 1716.84 464.934L1687.05 451.765C1682.98 461.362 1676.37 469.238 1667.24 475.349ZM1563.65 348.84C1554.8 357.362 1547.91 367.454 1543.04 379.139C1538.18 390.802 1535.72 403.519 1535.72 417.249C1535.72 430.978 1538.22 443.91 1543.17 455.488C1548.15 467.086 1555.06 477.136 1563.93 485.657C1572.77 494.2 1583.19 500.849 1595.16 505.648C1602.83 508.725 1610.9 510.813 1619.38 511.91V483.161C1612.47 481.805 1606.08 479.46 1600.22 476.103C1590.38 470.486 1582.72 462.61 1577.21 452.518C1571.72 442.426 1568.96 430.655 1568.96 417.249C1568.96 403.842 1571.72 392.136 1577.21 382.108C1582.72 372.102 1590.38 364.269 1600.22 358.653C1606.08 355.296 1612.47 352.929 1619.38 351.573V322.802C1610.77 323.878 1602.61 325.922 1594.91 328.957C1582.94 333.691 1572.52 340.319 1563.65 348.84Z" fill="white"/>
</svg> 